<svg xmlns="http://www.w3.org/2000/svg" viewBox="0 0 639.89 213.44"><title>logo-clinica-sense-1</title><g id="bf6129aa-ee0a-4827-9fb5-45226dac70aa" data-name="Layer 2"><g id="a18c2b75-bcbe-41e7-a911-7052db5f10b0" data-name="Camada 1"><path d="M218.69,3.67a13,13,0,0,1,9,3.45.72.72,0,0,1,0,1l-1,1c-.29.37-.59.33-1,0a11.28,11.28,0,0,0-7.08-2.78A10.53,10.53,0,0,0,208.31,17a10.51,10.51,0,0,0,10.35,10.64c3.22,0,5.11-1.29,7.08-2.78a.7.7,0,0,1,.89-.11l1.11,1a.7.7,0,0,1,0,1,12.71,12.71,0,0,1-9,3.6,13.35,13.35,0,1,1,0-26.7Z" style="fill:#ba8167"/><path d="M248.25,4.75A.7.7,0,0,1,249,4h1.45a.73.73,0,0,1,.7.71V27.52h10.68a.7.7,0,0,1,.7.7v1.07a.7.7,0,0,1-.7.71H249a.7.7,0,0,1-.7-.71Z" style="fill:#ba8167"/><path d="M281.5,2.62a.52.52,0,0,1,.22-.7L284.36.13c.22-.15.77-.23,1,.11L286,1.57a.54.54,0,0,1-.23.78l-3,1.16c-.52.22-.71.22-.86-.07Zm-.21,4.6a.72.72,0,0,1,.7-.7h1.48a.73.73,0,0,1,.71.7V29.29a.73.73,0,0,1-.71.71H282a.72.72,0,0,1-.7-.71Z" style="fill:#ba8167"/><path d="M306.58,4.34a.7.7,0,0,1,.7-.67h.93l16.72,20.84H325V4.75a.71.71,0,0,1,.71-.71H327a.73.73,0,0,1,.7.71v25a.7.7,0,0,1-.7.67h-.67l-17-21.25h0V29.29a.7.7,0,0,1-.7.71h-1.3a.72.72,0,0,1-.7-.71Z" style="fill:#ba8167"/><path d="M350.11,4.75a.73.73,0,0,1,.7-.71h1.48a.74.74,0,0,1,.71.71V29.29a.73.73,0,0,1-.71.71h-1.48a.72.72,0,0,1-.7-.71Z" style="fill:#ba8167"/><path d="M386.89,3.67a13,13,0,0,1,9,3.45.72.72,0,0,1,0,1l-1,1c-.3.37-.6.33-1,0a11.26,11.26,0,0,0-7.08-2.78A10.53,10.53,0,0,0,376.5,17a10.51,10.51,0,0,0,10.35,10.64c3.23,0,5.12-1.29,7.08-2.78a.7.7,0,0,1,.89-.11l1.12,1a.71.71,0,0,1,0,1,12.71,12.71,0,0,1-9,3.6,13.35,13.35,0,1,1,0-26.7Z" style="fill:#ba8167"/><path d="M412.88,29l11.27-25a.68.68,0,0,1,.64-.41h.37a.68.68,0,0,1,.63.41L437,29a.65.65,0,0,1-.63,1h-1.48a.68.68,0,0,1-.63-.41l-2.74-6.12H418.33l-2.7,6.12A.69.69,0,0,1,415,30h-1.49A.65.65,0,0,1,412.88,29Zm17.62-7.87c-1.82-4-3.6-8.12-5.42-12.16h-.29l-5.42,12.16Z" style="fill:#ba8167"/><path d="M89.09,104.74H76.55a39.25,39.25,0,0,0-6.78-12.33,21.62,21.62,0,0,0-8.88-6.34,35.56,35.56,0,0,0-12.14-1.82q-10.44,0-16.64,4.89T25.9,102.52a18.16,18.16,0,0,0,2.49,9.92,25,25,0,0,0,7.7,7.32q5.22,3.39,18.4,9a134.07,134.07,0,0,1,20.56,10.58,38.84,38.84,0,0,1,11.36,11.22,27.68,27.68,0,0,1,4.11,15.28q0,10.31-3.52,17.36a30.12,30.12,0,0,1-9.92,11.48,42.55,42.55,0,0,1-15.21,6.4,88.59,88.59,0,0,1-19.26,2,135.57,135.57,0,0,1-21.27-1.63c-6.88-1.09-15.95-3.3-19.52-6.58-3.72-3.41-.59-25-.59-25H14q3.54,12,10.45,17.43t19.06,5.42a43.35,43.35,0,0,0,9.2-1,24,24,0,0,0,8-3.27,16.41,16.41,0,0,0,5.61-6.2,20.65,20.65,0,0,0,2.09-9.79c0-4.44-.87-8-2.61-10.83A25,25,0,0,0,57.76,154q-5.49-3.45-19.32-9.33A119.9,119.9,0,0,1,19.38,135a37.64,37.64,0,0,1-11.29-11.1A27.31,27.31,0,0,1,4,108.79a30.53,30.53,0,0,1,5.81-18.6q5.82-7.91,16.78-12.08t25.71-4.18a159.89,159.89,0,0,1,16.65.85c5.35.57,18.18,3.14,19.34,5.69C90.44,85.24,89.09,104.74,89.09,104.74Z" style="fill:#ba8167"/><path d="M504.94,104.74H492.41a39.45,39.45,0,0,0-6.79-12.33,21.62,21.62,0,0,0-8.88-6.34,35.52,35.52,0,0,0-12.14-1.82q-10.44,0-16.64,4.89t-6.2,13.38a18.15,18.15,0,0,0,2.48,9.92,25,25,0,0,0,7.7,7.32q5.22,3.39,18.41,9a134.54,134.54,0,0,1,20.56,10.58,38.8,38.8,0,0,1,11.35,11.22,27.68,27.68,0,0,1,4.11,15.28q0,10.31-3.52,17.36a30.12,30.12,0,0,1-9.92,11.48,42.47,42.47,0,0,1-15.21,6.4,88.43,88.43,0,0,1-19.25,2,135.7,135.7,0,0,1-21.28-1.63c-6.88-1.09-15.95-3.3-19.52-6.58s-.59-25-.59-25h12.8q3.53,12,10.44,17.43t19.06,5.42a43.35,43.35,0,0,0,9.2-1,23.94,23.94,0,0,0,8-3.27,16.41,16.41,0,0,0,5.61-6.2,20.54,20.54,0,0,0,2.09-9.79c0-4.44-.87-8-2.61-10.83a25,25,0,0,0-8.09-7.64q-5.49-3.45-19.32-9.33A120.34,120.34,0,0,1,435.23,135a37.64,37.64,0,0,1-11.29-11.1,27.38,27.38,0,0,1-4.11-15.14,30.47,30.47,0,0,1,5.81-18.6q5.81-7.91,16.77-12.08t25.72-4.18a159.84,159.84,0,0,1,16.64.85c5.35.57,18.18,3.14,19.34,5.69C506.29,85.24,504.94,104.74,504.94,104.74Z" style="fill:#ba8167"/><path d="M636.18,178.76a110.87,110.87,0,0,1-15.34,13.71,58.41,58.41,0,0,1-15.34,7.76A57.57,57.57,0,0,1,587.09,203q-26.9,0-40.6-16.12t-13.7-47.58q0-19.45,7-34.34a52.84,52.84,0,0,1,19.91-23q12.92-8.1,29.76-8.1,13.18,0,22.45,4.18a37.84,37.84,0,0,1,14.82,11.42,53.34,53.34,0,0,1,8.62,18.28c2,7.35,6.68,27.77,3.45,28.78-2.48.79-82.24,0-82.24,0v2.35q0,15.41,3.46,25.92a32.75,32.75,0,0,0,11.36,16.45q7.9,5.94,20.56,5.93a45,45,0,0,0,19.26-4q8.54-4,17-13Zm-21.94-53q-.78-14.1-3.52-23T602.5,89q-5.49-4.76-14.37-4.76A25.44,25.44,0,0,0,566.66,95q-8,10.77-9.46,30.74Z" style="fill:#ba8167"/><path d="M389.44,207.05c-4-1.4-7-2.2-8.62-3.2a10.7,10.7,0,0,1-3.78-3.72,16.84,16.84,0,0,1-1.83-6.27,114,114,0,0,1-.52-13.05V121.57a96.65,96.65,0,0,0-1.37-17.88,42.08,42.08,0,0,0-4.11-12.08,27.74,27.74,0,0,0-7-8.42,28.32,28.32,0,0,0-9.79-5,44.59,44.59,0,0,0-12.59-1.63A36.23,36.23,0,0,0,327,78.82a54.16,54.16,0,0,0-12,6.46q-5.94,4.18-15.6,14s3.67-20.18-.4-21.8c-2.12-.84-33.56,1.18-33.56,1.18v6.91c2.81,1.3,2.33.77,4.27,2a13.3,13.3,0,0,1,4.62,5.07,20.17,20.17,0,0,1,1.83,8.16q.25,5.09.26,13.44V120c-16.58,15-37.87,34.15-48.56,43.68-3.36,3-8.85,7.27-8.85,7.27-2.61,1.93-16.18,14.08-36.67,16.3-9.82,1.07-15.29-2-20.56-5.93a32.75,32.75,0,0,1-11.36-16.45q-3.45-10.52-3.46-25.92v-2.35s79.76.79,82.24,0c3.23-1-1.41-21.43-3.46-28.78a53.15,53.15,0,0,0-8.61-18.28,37.84,37.84,0,0,0-14.82-11.42q-9.27-4.17-22.45-4.18-16.85,0-29.76,8.1a52.77,52.77,0,0,0-19.91,23q-7,14.88-7,34.34c0,21,3,34.14,10.92,45.84,3.78,5.61,13.92,18.3,37.61,19.36,8,.36,20.76-1.43,30.57-6.06,23.2-10.95,43.33-34.65,48-39.31l54.91-54.07c2.27-2.15,3.82-3.62,4.13-3.89,1-.95,2.07-1.81,3.07-2.6l.51-.4a33.07,33.07,0,0,1,6.47-4,23.73,23.73,0,0,1,9.66-2,25.12,25.12,0,0,1,8.22,1.11,18.78,18.78,0,0,1,9.73,7.57,25.66,25.66,0,0,1,3,7.44,68.06,68.06,0,0,1,1.76,12.21q.53,7.44.53,16.58v44.22s0,4.19,0,5.59c.1,9.14.5,26.52,25.18,26.52h12C391,213.44,391,207.57,389.44,207.05ZM157.05,95a25.44,25.44,0,0,1,21.47-10.77q8.88,0,14.37,4.76t8.22,13.71q2.74,8.94,3.52,23h-57Q149,105.78,157.05,95Z" style="fill:#ba8167"/><path d="M313.47,197c-2-1.08-7.64-2.46-9.6-4a11.41,11.41,0,0,1-4-6.65q-1-4.38-1.05-15.6v-55L276.39,137v34.23a76,76,0,0,1-.85,13.44,16.59,16.59,0,0,1-2.35,6.4,11,11,0,0,1-3.65,3.27c-1.44.78-6.06,1.7-7.25,2.74-.71.61,0,6.39,0,6.39h51.18S314.32,197.49,313.47,197Z" style="fill:#ba8167"/></g></g></svg>